<?xml version="1.0" encoding="utf-8"?>
<!-- Generator: Adobe Illustrator 19.0.0, SVG Export Plug-In . SVG Version: 6.00 Build 0)  -->
<svg version="1.1" id="图层_1" xmlns="http://www.w3.org/2000/svg" xmlns:xlink="http://www.w3.org/1999/xlink" x="0px" y="0px"
	 viewBox="-3739 981 200 200" style="enable-background:new -3739 981 200 200;" xml:space="preserve">
	 <style type="text/css">
		* {fill:white;}
	</style>
<path d="M-3584,1009.9h-107.1c-9.1,0-16.5,7.4-16.5,16.5v29.6h12.4v-32.5c0-0.7,0.5-1.2,1.2-1.2h112.9c0.7,0,1.2,0.5,1.2,1.2v114.9
	c0,0.7-0.5,1.2-1.2,1.2H-3694c-0.7,0-1.2-0.5-1.2-1.2V1106h-12.4v29.6c0,9.1,7.4,16.5,16.5,16.5h107.1c9.1,0,16.5-7.4,16.5-16.5
	v-109.1C-3567.5,1017.3-3574.9,1009.9-3584,1009.9z"/>
<path d="M-3672.9,1108.9v-20.3h38.3c3.9,0,7.1-3.2,7.1-7.1s-3.2-7.1-7.1-7.1h-38.3v-19.3c0-3.2-3.8-5.1-6.3-3.1l-28.5,26.9
	c-2,1.6-2,4.6,0,6.2l28.5,26.9C-3676.6,1114-3672.9,1112.1-3672.9,1108.9z"/>
</svg>
