<?xml version="1.0" encoding="utf-8"?>
<!-- Generator: Adobe Illustrator 19.0.0, SVG Export Plug-In . SVG Version: 6.00 Build 0)  -->
<svg version="1.1" id="图层_1" xmlns="http://www.w3.org/2000/svg" xmlns:xlink="http://www.w3.org/1999/xlink" x="0px" y="0px"
	 viewBox="-197 320.9 200 200" style="enable-background:new -197 320.9 200 200;" xml:space="preserve">
	 <style type="text/css">
		* {fill:#1890ff;}
	</style>
<path d="M-70.9,366h-83.6c-3.2,0-5.9,2.3-6.3,5.5v108.5h35.7v-12.9c0-1.3,1.2-2.5,2.5-2.5h19.5c1.4,0,2.5,1.1,2.5,2.5v12.9h36V371.4
	C-65.1,368.4-67.7,366-70.9,366L-70.9,366z M-76.2,454c0,1.1-0.9,2-2,2h-69.3c-1.1,0-2-1-2-2v-4.5c0-1,1-2,2-2h69.3c1,0,2,0.9,2,2
	V454z M-76.2,435.1c0,1.1-0.9,2-2,2h-69.3c-1.1,0-2-1-2-2v-4.5c0-1,1-2,2-2h69.3c1,0,2,0.9,2,2V435.1z M-76.2,416.2c0,1.1-0.9,2-2,2
	h-69.3c-1.1,0-2-1-2-2v-4.5c0-1,1-2,2-2h69.3c1,0,2,0.9,2,2V416.2z M-76.2,397.3c0,1.1-0.9,2-2,2h-69.3c-1.1,0-2-1-2-2v-4.5
	c0-1,1-2,2-2h69.3c1,0,2,0.9,2,2V397.3z M-34,403.5c-0.4-3.5-3.2-6.4-6.7-6.4h-17.6v15.2h13.1c1.1,0,2,0.9,2,2v4.6c0,1.1-0.9,2-2,2
	h-13.1v7.1h13.1c1.1,0,2,0.9,2,2v4.5c0,1.1-0.9,2-2,2h-13.1v7.1h13.1c1.1,0,2,0.9,2,2v4.5c0,1.1-0.9,2-2,2h-13.1v7.1h13.1
	c1.1,0,2,0.9,2,2v4.5c0,1.1-0.9,2-2,2h-13.1v12H-34V403.5L-34,403.5z"/>
</svg>
