<?xml version="1.0" encoding="utf-8"?>
<!-- Generator: Adobe Illustrator 19.0.0, SVG Export Plug-In . SVG Version: 6.00 Build 0)  -->
<svg version="1.1" id="图层_1" xmlns="http://www.w3.org/2000/svg" xmlns:xlink="http://www.w3.org/1999/xlink" x="0px" y="0px"
	 viewBox="-3739 981 200 200" style="enable-background:new -3739 981 200 200;" xml:space="preserve">
<path d="M-3560,1148.9l-46.4-46.4c11.2-11.6,17.5-27.2,17.5-43.3c0-34.5-28-62.5-62.5-62.5s-62.5,28-62.5,62.5s28,62.5,62.5,62.5
	c11.6,0,22.9-3.2,32.8-9.3l47.6,47.6c3.1,3.1,8,3.1,11,0S-3557,1152-3560,1148.9L-3560,1148.9z M-3701.5,1059.1
	c0-27.6,22.4-50,50-50s50,22.4,50,50s-22.4,50-50,50S-3701.5,1086.7-3701.5,1059.1z"/>
</svg>
