<?xml version="1.0" encoding="utf-8"?>
<!-- Generator: Adobe Illustrator 19.0.0, SVG Export Plug-In . SVG Version: 6.00 Build 0)  -->
<svg version="1.1" id="图层_1" xmlns="http://www.w3.org/2000/svg" xmlns:xlink="http://www.w3.org/1999/xlink" x="0px" y="0px"
	 viewBox="-3739 981 200.4 200" style="enable-background:new -3739 981 200.4 200;" xml:space="preserve">
<path d="M-3737.3,998.5l72.5,87.5v60.8c0,2.5,1.7,4.2,3.3,5.8l40.8,20c0.8,0.8,1.7,0.8,2.5,0.8c0.8,0,2.5,0,3.3-0.8
	c1.7-0.8,2.5-3.3,2.5-5v-80.8l72.5-87.5c1.7-1.7,1.7-4.2,0.8-6.7s-3.3-3.3-5.8-3.3h-187.5c-2.5,0-4.2,1.7-5.8,3.3
	C-3739,994.3-3739,996.8-3737.3,998.5z M-3719.8,1001h162.5l-65.8,79.2c-0.8,0.8-1.7,2.5-1.7,4.2v73.3l-28.3-14.2v-59.2
	c0-1.7-0.8-2.5-1.7-4.2L-3719.8,1001z"/>
</svg>
