<?xml version="1.0" encoding="utf-8"?>
<!-- Generator: Adobe Illustrator 19.0.0, SVG Export Plug-In . SVG Version: 6.00 Build 0)  -->
<svg version="1.1" id="图层_1" xmlns="http://www.w3.org/2000/svg" xmlns:xlink="http://www.w3.org/1999/xlink" x="0px" y="0px"
	 viewBox="-197 320.9 200 200" style="enable-background:new -197 320.9 200 200;" xml:space="preserve">
	 <style type="text/css">
		* {fill:white;}
	</style>
<path d="M-94.1,371.3h-5.4c-3.2,0.3-6,0.9-7.8,1.5l-25.1,13.4v-22c0-3.9,3.2-7.1,7.1-7.1h17.7v-10.6c0-3.9,3.2-7.1,7.1-7.1h7.1
	c3.9,0,7.1,3.2,7.1,7.1v10.6h17.7c3.9,0,7.1,3.2,7.1,7.1v22.6l-27-14.5C-90.5,371.8-92.3,371.5-94.1,371.3z M-40,451.7
	c-10.1,2.4-24.6,6.9-38.5,14.7c-19.8,11.2-20.9,8.9-36,1.4c-13.3-6.6-26.1-10.9-35.8-13.5l-10.5-15.8c-10.7-14.2-13-20.5-7.1-24.7
	l60.3-31.8c6.9-3.3,13.9-3.8,21.3,0l60.3,31.8c3.8,3.1,7,9.5-4.7,24.7L-40,451.7z M-19,484.5c0,3.9-3.2,7-7.1,7
	c-1.1,0-2.2-0.3-3.2-0.8c0,0-8.4-6.3-18.1-6.3c-11.2,0-24.8,10.6-24.8,10.6s-7.4,7.1-24.8,7.1c-17.2,0-24.8-7.1-24.8-7.1
	s-15.8-11.2-24.8-10.6c0,0-8.2-2.5-18.1,6.3c-1,0.5-2,0.8-3.2,0.8c-3.9,0-7.1-3.1-7.1-7c0-2.7,1-5.2,3.5-7c0,0,20.7-24,53.2,0
	c0,0,10.4,7,17.7,7h7.1c0,0,8.6-0.8,17.7-7c9.1-6.3,30.7-20.3,53.2,0C-20.2,478.9-19,481.8-19,484.5L-19,484.5z"/>
</svg>
