<?xml version="1.0" encoding="utf-8"?>
<!-- Generator: Adobe Illustrator 22.0.2, SVG Export Plug-In . SVG Version: 6.00 Build 0)  -->
<svg version="1.1" id="图层_1" xmlns="http://www.w3.org/2000/svg" xmlns:xlink="http://www.w3.org/1999/xlink" x="0px" y="0px"
	 viewBox="0 0 258.4 200" style="enable-background:new 0 0 258.4 200;" xml:space="preserve">
	 <style type="text/css">
		* {fill:#1890ff;}
	</style>
<path d="M223.7,96.3H204c-2.2,0-4-1.8-4-4V65.5c0-2.2-1.8-4-4-4h-40.3c-2.2,0-4,1.8-4,4v75.1c0,2.2,1.6,4,3.5,4
	s3.5-1.8,3.9-4c1.9-10.5,11-18.4,22-18.4s20.1,7.9,22,18.4c0.4,2.2,2.1,4,4.4,4h16.1c2.2,0,4-1.8,4-4v-40.3
	C227.7,98.1,225.9,96.3,223.7,96.3z M185.6,86.4c0,2.2-1.8,4-4,4h-10.9c-2.2,0-4-1.8-4-4V75.5c0-2.2,1.8-4,4-4h10.9c2.2,0,4,1.8,4,4
	V86.4z M37.5,140.6c0,2.2,1.6,4,3.6,4h1c2,0,3.6-1.8,3.9-4c1.7-10.5,11-18.5,22.3-18.3c9.9,0.2,18.3,7.8,20,18.3
	c0.4,2.2,1.9,4,3.9,4h11h8.4h31.8c2,0,3.6-1.8,3.6-4v-31H37.4v31H37.5z M143.5,40.9h-31.8h-8.4l0,0H81.4H67.9H41.2
	c-2,0-3.6,1.8-3.6,4v61.6h109.6V44.9C147.1,42.7,145.5,40.9,143.5,40.9z M67,127.6c-10.2,0-18.4,8.2-18.4,18.4
	c0,10.2,8.2,18.4,18.4,18.4s18.4-8.2,18.4-18.4C85.4,135.9,77.2,127.6,67,127.6z M67,153.2c-4,0-7.2-3.2-7.2-7.2s3.2-7.2,7.2-7.2
	s7.2,3.2,7.2,7.2S71,153.2,67,153.2z M181.3,127.5c-10.2,0-18.4,8.2-18.4,18.4c0,10.2,8.2,18.4,18.4,18.4s18.4-8.2,18.4-18.4
	S191.5,127.5,181.3,127.5z M181.3,153.1c-4,0-7.2-3.2-7.2-7.2s3.2-7.2,7.2-7.2s7.2,3.2,7.2,7.2C188.5,149.8,185.3,153.1,181.3,153.1
	z"/>
</svg>
