<?xml version="1.0" encoding="utf-8"?>
<!-- Generator: Adobe Illustrator 19.0.0, SVG Export Plug-In . SVG Version: 6.00 Build 0)  -->
<svg version="1.1" id="图层_1" xmlns="http://www.w3.org/2000/svg" xmlns:xlink="http://www.w3.org/1999/xlink" x="0px" y="0px"
	 viewBox="-197 320.9 200 200" style="enable-background:new -197 320.9 200 200;" xml:space="preserve">
	 <style type="text/css">
		* {fill:white;}
	</style>
<path d="M-32.8,339.2h-125.5c-4.7,0-8.6,3.8-8.6,8.5v53.7c0,4.7,3.8,8.5,8.6,8.5h125.5c4.7,0,8.6-3.8,8.6-8.5v-53.7
	C-24.3,343-28.1,339.2-32.8,339.2z M-130.7,392c0,1.9-1.7,3.5-3.9,3.5c-2.1,0-3.9-1.6-3.9-3.5l0-35c0-1.9,1.7-3.5,3.9-3.5
	c2.1,0,3.9,1.6,3.9,3.5V392z M-105.5,392c0,1.9-1.7,3.5-3.9,3.5s-3.9-1.6-3.9-3.5l0-35c0-1.9,1.7-3.5,3.9-3.5s3.9,1.6,3.9,3.5V392z
	 M-80.3,392c0,1.9-1.7,3.5-3.9,3.5c-2.1,0-3.9-1.6-3.9-3.5v-35c0-1.9,1.7-3.5,3.9-3.5c2.1,0,3.9,1.6,3.9,3.5V392z M-55,392
	c0,1.9-1.7,3.5-3.9,3.5c-2.1,0-3.9-1.6-3.9-3.5v-35c0-1.9,1.7-3.5,3.9-3.5c2.1,0,3.9,1.6,3.9,3.5V392z M-30.3,493.6h-130.5
	c-3.4,0-6.1,2.7-6.1,6c0,3.3,2.7,6,6.1,6h130.5c3.4,0,6.1-2.7,6.1-6C-24.3,496.3-27,493.6-30.3,493.6 M-32.8,416.4h-125.5
	c-4.7,0-8.6,3.8-8.6,8.5v53.7c0,4.7,3.8,8.5,8.6,8.5h125.5c4.7,0,8.6-3.8,8.6-8.5v-53.7C-24.3,420.2-28.1,416.4-32.8,416.4z
	 M-130.7,469.3c0,1.9-1.7,3.5-3.9,3.5c-2.1,0-3.9-1.6-3.9-3.5l0-35c0-1.9,1.7-3.5,3.9-3.5c2.1,0,3.9,1.6,3.9,3.5V469.3z
	 M-105.5,469.3c0,1.9-1.7,3.5-3.9,3.5s-3.9-1.6-3.9-3.5l0-35c0-1.9,1.7-3.5,3.9-3.5s3.9,1.6,3.9,3.5V469.3z M-80.3,469.3
	c0,1.9-1.7,3.5-3.9,3.5c-2.1,0-3.9-1.6-3.9-3.5v-35c0-1.9,1.7-3.5,3.9-3.5c2.1,0,3.9,1.6,3.9,3.5V469.3z M-55,469.3
	c0,1.9-1.7,3.5-3.9,3.5c-2.1,0-3.9-1.6-3.9-3.5v-35c0-1.9,1.7-3.5,3.9-3.5c2.1,0,3.9,1.6,3.9,3.5V469.3z"/>
</svg>
