<?xml version="1.0" encoding="utf-8"?>
<!-- Generator: Adobe Illustrator 19.0.0, SVG Export Plug-In . SVG Version: 6.00 Build 0)  -->
<svg version="1.1" id="图层_1" xmlns="http://www.w3.org/2000/svg" xmlns:xlink="http://www.w3.org/1999/xlink" x="0px" y="0px"
	 viewBox="-205 297 200.6 200" style="enable-background:new -205 297 200.6 200;" xml:space="preserve">
	 <style type="text/css">
		* {fill:white;}
	</style>
<path d="M-54.7,326.9l-40.1-21.7c-2.3-1.2-5.1-1.2-7.4,0l-38.9,21.7c-2,1.4-3,3.9-2.6,6.3v43.2c-0.5,2.4,0.6,4.9,2.6,6.3l39.4,21.7
	c2.2,1.3,4.9,1.3,7.1,0l39.9-21.7c2.3-1.3,3.7-3.7,3.6-6.3v-43.2C-50.9,330.6-52.4,328.2-54.7,326.9L-54.7,326.9z M-96.6,357.4
	c-0.7,0.8-1.9,0.8-2.7,0c0,0,0,0,0,0l-35.9-19.7c-0.8-0.8-0.8-2,0-2.8l35.9-19.7c0.7-0.8,1.9-0.8,2.7,0c0,0,0,0,0,0l35.8,19.7
	c0.8,0.8,0.8,2,0,2.8L-96.6,357.4z M-60.5,375.7c-0.1,0.8-0.5,1.6-1.2,2.1l-28.6,16.4c-0.6,0.3-1,0-1-0.9l1.3-26.5
	c0.1-0.8,0.5-1.6,1.2-2.1l28.7-16.4c0.6-0.3,1,0,1,0.9L-60.5,375.7z M-99.7,399.9l-39.3-21.7c-2.2-1.2-4.9-1.2-7.1,0l-40.2,21.7
	c-2.4,1.2-3.8,3.7-3.9,6.3v43.2c0.1,2.7,1.7,5.1,4.1,6.3l40.2,21.7c2.3,1.3,5.1,1.3,7.5,0l38.7-21.7c2-1.4,3-3.9,2.4-6.3v-43.2
	C-96.7,403.8-97.7,401.3-99.7,399.9L-99.7,399.9z M-140.2,430.4c-0.7,0.8-1.9,0.8-2.7,0c0,0,0,0,0,0l-35.9-19.7
	c-0.8-0.8-0.8-2,0-2.8l35.9-19.7c0.7-0.8,1.9-0.8,2.7,0c0,0,0,0,0,0l35.8,19.7c0.8,0.8,0.8,2,0,2.8L-140.2,430.4z M-104.1,448.7
	c-0.1,0.8-0.5,1.6-1.2,2.1l-28.6,16.4c-0.6,0.3-1,0-1-0.9l1.3-26.5c0.1-0.8,0.5-1.6,1.2-2.1l28.7-16.4c0.6-0.3,1,0,1,0.9
	L-104.1,448.7z M-9.5,399.9l-40.7-21.7c-2.4-1.2-5.3-1.2-7.7,0l-37.8,21.7c-1.8,1.6-2.4,4.1-1.5,6.3v43.2c-0.9,2.2-0.3,4.7,1.4,6.3
	l38.8,21.7c2.1,1.2,4.7,1.2,6.8,0l41-21.7c2.6-1.2,4.4-3.5,4.8-6.3v-43.2C-5,403.4-6.9,401-9.5,399.9L-9.5,399.9z M-52.8,430.4
	c-0.7,0.8-1.9,0.8-2.7,0c0,0,0,0,0,0l-35.9-19.7c-0.8-0.8-0.8-2,0-2.8l35.9-19.7c0.7-0.8,1.9-0.8,2.7,0c0,0,0,0,0,0l35.8,19.7
	c0.8,0.8,0.8,2,0,2.8L-52.8,430.4z M-16.6,448.7c-0.1,0.8-0.5,1.6-1.2,2.1l-28.7,16.4c-0.6,0.3-1,0-1-0.9l1.3-26.5
	c0.1-0.8,0.5-1.6,1.2-2.1l28.7-16.4c0.6-0.3,1,0,1,0.9L-16.6,448.7z"/>
<g>
	<path d="M-45.7,417.1c-0.5,0-1,0.2-1.6,0.7l-3.4-1.3l3.5-1.3c0.6,0.4,1.1,0.6,1.6,0.6c0.6,0,0.9-0.3,1.1-0.9c0-0.1,0.1-0.3,0.1-0.4
		c0-0.7-0.5-1.1-1.4-1.2c0.4-0.4,0.6-0.8,0.6-1.1c0-0.4-0.2-0.7-0.6-1c-0.2-0.1-0.4-0.2-0.6-0.2c-0.8,0-1.3,0.6-1.6,1.8l-6.1,2.3
		l-6.1-2.2c-0.3-1.3-0.8-1.9-1.6-1.9c-0.2,0-0.4,0.1-0.6,0.2c-0.4,0.3-0.6,0.6-0.6,1c0,0.4,0.2,0.7,0.6,1.1
		c-0.9,0.1-1.4,0.4-1.4,1.2c0,0.1,0,0.3,0.1,0.4c0.2,0.6,0.6,0.9,1.1,0.9c0.5,0,1-0.2,1.6-0.6l3.5,1.3l-3.5,1.2
		c-0.6-0.4-1.1-0.6-1.6-0.6c-0.6,0-0.9,0.3-1.2,0.9c0,0.1-0.1,0.2-0.1,0.4c0,0.7,0.5,1.1,1.4,1.2c-0.4,0.4-0.6,0.8-0.6,1.1
		c0,0.4,0.2,0.7,0.6,1c0.2,0.1,0.5,0.2,0.7,0.2c0.7,0,1.2-0.6,1.5-1.8l6-2.2l6,2.2c0.3,1.2,0.8,1.8,1.6,1.8c0.2,0,0.4-0.1,0.7-0.2
		c0.4-0.3,0.6-0.6,0.6-1c0-0.4-0.2-0.7-0.6-1.1c0.9-0.1,1.4-0.4,1.4-1.2c0-0.1,0-0.3-0.1-0.4C-44.7,417.4-45.1,417.1-45.7,417.1
		L-45.7,417.1z"/>
	<path d="M-62.4,408.5c0.9,1.1,2.3,1.9,4,2.4v0.4c0,0.5,0.2,0.9,0.5,1.2c0.3,0.3,0.7,0.5,1.2,0.5c0.5,0,0.9-0.1,1.1-0.3
		c0.4,0.3,0.8,0.4,1.3,0.4c0.4,0,0.8-0.1,1.2-0.4c0.2,0.2,0.6,0.3,1.1,0.2c0.5-0.1,0.9-0.2,1.2-0.6c0.3-0.3,0.5-0.7,0.5-1.2V411
		c1.9-0.5,3.3-1.3,4.3-2.4c1-1.1,1.5-2.4,1.5-3.9c0-0.3,0-0.7-0.1-1c-0.3-2.2-1.4-4-3.1-5.5c-1.8-1.5-3.9-2.3-6.5-2.3
		c-2.6,0-4.7,0.8-6.5,2.3c-1.7,1.5-2.7,3.3-3,5.5c-0.1,0.4-0.1,0.7-0.1,1C-63.8,406.2-63.3,407.4-62.4,408.5L-62.4,408.5z
		 M-52.2,401.8c0.5-0.6,1.1-0.9,1.8-0.9c0.7,0,1.4,0.3,1.9,0.9c0.5,0.6,0.8,1.3,0.8,2.2c0,0.8-0.3,1.6-0.8,2.2
		c-0.5,0.6-1.1,0.9-1.9,0.9c-0.7,0-1.3-0.3-1.8-0.9c-0.5-0.6-0.8-1.3-0.8-2.2C-52.9,403.2-52.7,402.4-52.2,401.8L-52.2,401.8z
		 M-54.9,407.8c0.2-0.3,0.5-0.5,0.7-0.5c0.2,0,0.5,0.2,0.7,0.5c0.2,0.4,0.3,0.7,0.3,1c0,0.5-0.3,0.7-1,0.7c-0.4,0-0.8-0.1-1-0.3
		c-0.1-0.1-0.2-0.3-0.2-0.5C-55.3,408.4-55.2,408.1-54.9,407.8L-54.9,407.8z M-60.1,401.8c0.5-0.6,1.1-0.9,1.9-0.9
		c0.7,0,1.3,0.3,1.9,0.9c0.5,0.6,0.8,1.3,0.8,2.2c0,0.8-0.3,1.6-0.8,2.2c-0.5,0.6-1.1,0.9-1.9,0.9c-0.7,0-1.3-0.3-1.9-0.9
		c-0.5-0.6-0.8-1.3-0.8-2.2C-60.9,403.2-60.6,402.4-60.1,401.8z"/>
</g>
<g>
	<path d="M-89.6,343.5c-0.5,0-1,0.2-1.6,0.7l-3.4-1.3l3.5-1.3c0.6,0.4,1.1,0.6,1.6,0.6c0.6,0,0.9-0.3,1.1-0.9c0-0.1,0.1-0.3,0.1-0.4
		c0-0.7-0.5-1.1-1.4-1.2c0.4-0.4,0.6-0.8,0.6-1.1c0-0.4-0.2-0.7-0.6-1c-0.2-0.1-0.4-0.2-0.6-0.2c-0.8,0-1.3,0.6-1.6,1.8l-6.1,2.3
		l-6.1-2.2c-0.3-1.3-0.8-1.9-1.6-1.9c-0.2,0-0.4,0.1-0.6,0.2c-0.4,0.3-0.6,0.6-0.6,1c0,0.4,0.2,0.7,0.6,1.1
		c-0.9,0.1-1.4,0.4-1.4,1.2c0,0.1,0,0.3,0.1,0.4c0.2,0.6,0.6,0.9,1.1,0.9c0.5,0,1-0.2,1.6-0.6l3.5,1.3l-3.5,1.2
		c-0.6-0.4-1.1-0.6-1.6-0.6c-0.6,0-0.9,0.3-1.2,0.9c0,0.1-0.1,0.2-0.1,0.4c0,0.7,0.5,1.1,1.4,1.2c-0.4,0.4-0.6,0.8-0.6,1.1
		c0,0.4,0.2,0.7,0.6,1c0.2,0.1,0.5,0.2,0.7,0.2c0.7,0,1.2-0.6,1.5-1.8l6-2.2l6,2.2c0.3,1.2,0.8,1.8,1.6,1.8c0.2,0,0.4-0.1,0.7-0.2
		c0.4-0.3,0.6-0.6,0.6-1c0-0.4-0.2-0.7-0.6-1.1c0.9-0.1,1.4-0.4,1.4-1.2c0-0.1,0-0.3-0.1-0.4C-88.6,343.8-89,343.5-89.6,343.5
		L-89.6,343.5z"/>
	<path d="M-106.3,335c0.9,1.1,2.3,1.9,4,2.4v0.4c0,0.5,0.2,0.9,0.5,1.2c0.3,0.3,0.7,0.5,1.2,0.5c0.5,0,0.9-0.1,1.1-0.3
		c0.4,0.3,0.8,0.4,1.3,0.4c0.4,0,0.8-0.1,1.2-0.4c0.2,0.2,0.6,0.3,1.1,0.2c0.5-0.1,0.9-0.2,1.2-0.6c0.3-0.3,0.5-0.7,0.5-1.2v-0.3
		c1.9-0.5,3.3-1.3,4.3-2.4c1-1.1,1.5-2.4,1.5-3.9c0-0.3,0-0.7-0.1-1c-0.3-2.2-1.4-4-3.1-5.5c-1.8-1.5-3.9-2.3-6.5-2.3
		c-2.6,0-4.7,0.8-6.5,2.3c-1.7,1.5-2.7,3.3-3,5.5c-0.1,0.4-0.1,0.7-0.1,1C-107.7,332.6-107.2,333.9-106.3,335L-106.3,335z
		 M-96.1,328.3c0.5-0.6,1.1-0.9,1.8-0.9c0.7,0,1.4,0.3,1.9,0.9c0.5,0.6,0.8,1.3,0.8,2.2c0,0.8-0.3,1.6-0.8,2.2
		c-0.5,0.6-1.1,0.9-1.9,0.9c-0.7,0-1.3-0.3-1.8-0.9c-0.5-0.6-0.8-1.3-0.8-2.2C-96.8,329.6-96.6,328.9-96.1,328.3L-96.1,328.3z
		 M-98.8,334.2c0.2-0.3,0.5-0.5,0.7-0.5c0.2,0,0.5,0.2,0.7,0.5c0.2,0.4,0.3,0.7,0.3,1c0,0.5-0.3,0.7-1,0.7c-0.4,0-0.8-0.1-1-0.3
		c-0.1-0.1-0.2-0.3-0.2-0.5C-99.2,334.9-99,334.5-98.8,334.2L-98.8,334.2z M-104,328.3c0.5-0.6,1.1-0.9,1.9-0.9
		c0.7,0,1.3,0.3,1.9,0.9c0.5,0.6,0.8,1.3,0.8,2.2c0,0.8-0.3,1.6-0.8,2.2c-0.5,0.6-1.1,0.9-1.9,0.9c-0.7,0-1.3-0.3-1.9-0.9
		c-0.5-0.6-0.8-1.3-0.8-2.2C-104.8,329.6-104.5,328.9-104,328.3z"/>
</g>
<g>
	<path d="M-133.2,416.7c-0.5,0-1,0.2-1.6,0.7l-3.4-1.3l3.5-1.3c0.6,0.4,1.1,0.6,1.6,0.6c0.6,0,0.9-0.3,1.1-0.9
		c0-0.1,0.1-0.3,0.1-0.4c0-0.7-0.5-1.1-1.4-1.2c0.4-0.4,0.6-0.8,0.6-1.1c0-0.4-0.2-0.7-0.6-1c-0.2-0.1-0.4-0.2-0.6-0.2
		c-0.8,0-1.3,0.6-1.6,1.8l-6.1,2.3l-6.1-2.2c-0.3-1.3-0.8-1.9-1.6-1.9c-0.2,0-0.4,0.1-0.6,0.2c-0.4,0.3-0.6,0.6-0.6,1
		c0,0.4,0.2,0.7,0.6,1.1c-0.9,0.1-1.4,0.4-1.4,1.2c0,0.1,0,0.3,0.1,0.4c0.2,0.6,0.6,0.9,1.1,0.9c0.5,0,1-0.2,1.6-0.6l3.5,1.3
		l-3.5,1.2c-0.6-0.4-1.1-0.6-1.6-0.6c-0.6,0-0.9,0.3-1.2,0.9c0,0.1-0.1,0.2-0.1,0.4c0,0.7,0.5,1.1,1.4,1.2c-0.4,0.4-0.6,0.8-0.6,1.1
		c0,0.4,0.2,0.7,0.6,1c0.2,0.1,0.5,0.2,0.7,0.2c0.7,0,1.2-0.6,1.5-1.8l6-2.2l6,2.2c0.3,1.2,0.8,1.8,1.6,1.8c0.2,0,0.4-0.1,0.7-0.2
		c0.4-0.3,0.6-0.6,0.6-1c0-0.4-0.2-0.7-0.6-1.1c0.9-0.1,1.4-0.4,1.4-1.2c0-0.1,0-0.3-0.1-0.4C-132.2,417-132.6,416.7-133.2,416.7
		L-133.2,416.7z"/>
	<path d="M-149.9,408.1c0.9,1.1,2.3,1.9,4,2.4v0.4c0,0.5,0.2,0.9,0.5,1.2c0.3,0.3,0.7,0.5,1.2,0.5c0.5,0,0.9-0.1,1.1-0.3
		c0.4,0.3,0.8,0.4,1.3,0.4c0.4,0,0.8-0.1,1.2-0.4c0.2,0.2,0.6,0.3,1.1,0.2c0.5-0.1,0.9-0.2,1.2-0.6c0.3-0.3,0.5-0.7,0.5-1.2v-0.3
		c1.9-0.5,3.3-1.3,4.3-2.4c1-1.1,1.5-2.4,1.5-3.9c0-0.3,0-0.7-0.1-1c-0.3-2.2-1.4-4-3.1-5.5c-1.8-1.5-3.9-2.3-6.5-2.3
		c-2.6,0-4.7,0.8-6.5,2.3c-1.7,1.5-2.7,3.3-3,5.5c-0.1,0.4-0.1,0.7-0.1,1C-151.3,405.8-150.8,407-149.9,408.1L-149.9,408.1z
		 M-139.7,401.4c0.5-0.6,1.1-0.9,1.8-0.9c0.7,0,1.4,0.3,1.9,0.9c0.5,0.6,0.8,1.3,0.8,2.2c0,0.8-0.3,1.6-0.8,2.2
		c-0.5,0.6-1.1,0.9-1.9,0.9c-0.7,0-1.3-0.3-1.8-0.9c-0.5-0.6-0.8-1.3-0.8-2.2C-140.4,402.8-140.2,402-139.7,401.4L-139.7,401.4z
		 M-142.4,407.4c0.2-0.3,0.5-0.5,0.7-0.5c0.2,0,0.5,0.2,0.7,0.5c0.2,0.4,0.3,0.7,0.3,1c0,0.5-0.3,0.7-1,0.7c-0.4,0-0.8-0.1-1-0.3
		c-0.1-0.1-0.2-0.3-0.2-0.5C-142.8,408-142.6,407.7-142.4,407.4L-142.4,407.4z M-147.6,401.4c0.5-0.6,1.1-0.9,1.9-0.9
		c0.7,0,1.3,0.3,1.9,0.9c0.5,0.6,0.8,1.3,0.8,2.2c0,0.8-0.3,1.6-0.8,2.2c-0.5,0.6-1.1,0.9-1.9,0.9c-0.7,0-1.3-0.3-1.9-0.9
		c-0.5-0.6-0.8-1.3-0.8-2.2C-148.4,402.8-148.1,402-147.6,401.4z"/>
</g>
</svg>
