<?xml version="1.0" encoding="utf-8"?>
<!-- Generator: Adobe Illustrator 19.0.0, SVG Export Plug-In . SVG Version: 6.00 Build 0)  -->
<svg version="1.1" id="图层_1" xmlns="http://www.w3.org/2000/svg" xmlns:xlink="http://www.w3.org/1999/xlink" x="0px" y="0px"
	 viewBox="-205 297 200.6 200" style="enable-background:new -205 297 200.6 200;" xml:space="preserve">
	 <style type="text/css">
		* {fill:white;}
	</style>
<path d="M-46.8,313.8h-125.5c-4.7,0-8.6,3.8-8.6,8.5V376c0,4.7,3.8,8.5,8.6,8.5h125.5c4.7,0,8.6-3.8,8.6-8.5v-53.7
	C-38.3,317.6-42.1,313.8-46.8,313.8z M-144.7,366.6c0,1.9-1.7,3.5-3.9,3.5c-2.1,0-3.9-1.6-3.9-3.5l0-35c0-1.9,1.7-3.5,3.9-3.5
	c2.1,0,3.9,1.6,3.9,3.5L-144.7,366.6z M-119.5,366.6c0,1.9-1.7,3.5-3.9,3.5s-3.9-1.6-3.9-3.5l0-35c0-1.9,1.7-3.5,3.9-3.5
	s3.9,1.6,3.9,3.5L-119.5,366.6z M-94.2,366.6c0,1.9-1.7,3.5-3.9,3.5c-2.1,0-3.9-1.6-3.9-3.5v-35c0-1.9,1.7-3.5,3.9-3.5
	c2.1,0,3.9,1.6,3.9,3.5V366.6z M-69,366.6c0,1.9-1.7,3.5-3.9,3.5s-3.9-1.6-3.9-3.5v-35c0-1.9,1.7-3.5,3.9-3.5c2.1,0,3.9,1.6,3.9,3.5
	V366.6z M-44.3,468.2h-130.5c-3.4,0-6.1,2.7-6.1,6c0,3.3,2.7,6,6.1,6h130.5c3.4,0,6.1-2.7,6.1-6C-38.3,470.9-41,468.2-44.3,468.2
	 M-46.8,391h-125.5c-4.7,0-8.6,3.8-8.6,8.5v53.7c0,4.7,3.8,8.5,8.6,8.5h125.5c4.7,0,8.6-3.8,8.6-8.5v-53.7
	C-38.3,394.9-42.1,391-46.8,391z M-144.7,443.9c0,1.9-1.7,3.5-3.9,3.5c-2.1,0-3.9-1.6-3.9-3.5l0-35c0-1.9,1.7-3.5,3.9-3.5
	c2.1,0,3.9,1.6,3.9,3.5L-144.7,443.9z M-119.5,443.9c0,1.9-1.7,3.5-3.9,3.5s-3.9-1.6-3.9-3.5l0-35c0-1.9,1.7-3.5,3.9-3.5
	s3.9,1.6,3.9,3.5L-119.5,443.9z M-94.2,443.9c0,1.9-1.7,3.5-3.9,3.5c-2.1,0-3.9-1.6-3.9-3.5v-35c0-1.9,1.7-3.5,3.9-3.5
	c2.1,0,3.9,1.6,3.9,3.5V443.9z M-69,443.9c0,1.9-1.7,3.5-3.9,3.5s-3.9-1.6-3.9-3.5v-35c0-1.9,1.7-3.5,3.9-3.5c2.1,0,3.9,1.6,3.9,3.5
	V443.9z"/>
</svg>
