<?xml version="1.0" encoding="utf-8"?>
<!-- Generator: Adobe Illustrator 19.0.0, SVG Export Plug-In . SVG Version: 6.00 Build 0)  -->
<svg version="1.1" id="图层_1" xmlns="http://www.w3.org/2000/svg" xmlns:xlink="http://www.w3.org/1999/xlink" x="0px" y="0px"
	 viewBox="-205 297 200.6 200" style="enable-background:new -205 297 200.6 200;" xml:space="preserve">
	 <style type="text/css">
		* {fill:white;}
	</style>
<path d="M-101.2,336.1h-6.6c-3.9,0.3-7.3,1.1-9.6,1.8l-30.9,16.5v-27c0-4.8,3.9-8.7,8.7-8.7h21.8v-13c0-4.8,3.9-8.7,8.7-8.7h8.7
	c4.8,0,8.7,3.9,8.7,8.7v13h21.8c4.8,0,8.7,3.9,8.7,8.7v27.8l-33.2-17.8C-96.6,336.7-98.9,336.3-101.2,336.1L-101.2,336.1z
	 M-34.6,434.9c-12.4,3-30.3,8.5-47.3,18.1c-24.3,13.7-25.7,11-44.3,1.7c-16.3-8.1-32.1-13.4-44-16.5l-12.9-19.5
	c-13.2-17.5-16-25.2-8.7-30.4l74.1-39.1c8.4-4.1,17.1-4.7,26.2,0l74.1,39.1c4.7,3.9,8.6,11.7-5.8,30.4L-34.6,434.9z M-8.8,475.3
	c0,4.8-3.9,8.7-8.7,8.7c-1.4,0-2.7-0.4-3.9-0.9c0,0-10.4-7.7-22.3-7.7c-13.8,0-30.5,13-30.5,13s-9.1,8.7-30.5,8.7
	c-21.2,0-30.5-8.7-30.5-8.7s-19.4-13.8-30.5-13c0,0-10.1-3-22.3,7.7c-1.2,0.6-2.5,0.9-3.9,0.9c-4.8,0-8.7-3.8-8.7-8.7
	c0-3.4,1.3-6.4,4.4-8.7c0,0,25.5-29.5,65.4,0c0,0,12.7,8.7,21.8,8.7h8.7c0,0,10.5-1,21.8-8.7c11.2-7.7,37.7-25,65.4,0
	C-10.3,468.3-8.8,471.9-8.8,475.3z"/>
</svg>
