<?xml version="1.0" encoding="utf-8"?>
<!-- Generator: Adobe Illustrator 19.0.0, SVG Export Plug-In . SVG Version: 6.00 Build 0)  -->
<svg version="1.1" id="图层_1" xmlns="http://www.w3.org/2000/svg" xmlns:xlink="http://www.w3.org/1999/xlink" x="0px" y="0px"
	 viewBox="-205 297 200.6 200" style="enable-background:new -205 297 200.6 200;" xml:space="preserve">
	 <style type="text/css">
		* {fill:white;}
	</style>
<path d="M-127.5,322h116.3c3.6,0,6.5,3,6.5,6.8v88.6c0,3.8-2.9,6.8-6.5,6.8h-116.3c-3.6,0-6.5-3-6.5-6.8l0-88.6
	C-133.9,325-131,322-127.5,322z"/>
<path d="M-153.7,349.3c0,0,11.5-3.4,11.5,10.2v50c0,0,1,14.6-11.1,14.6h-19.8c0,0-19,1.5-19,19.8c0,0-0.4,7.7-6.9,7.7
	c0,0-5.8,0-5.8-6.4v-42.6c0,0,1.4-6.8,5.4-12.8l13.7-26.9c0,0,3.2-13.6,12.9-13.6C-169,349.7-153.7,349.3-153.7,349.3z"/>
<path d="M-166.4,431.2c10.8,0,19.6,8.7,19.6,20.1s-8.8,20.7-19.6,20.7s-19.1-9.3-19.1-20.7C-185.5,439.9-177.2,431.2-166.4,431.2z"
	/>
<path d="M-140.4,431.1h77.5c0,0,6.1,8.3,6.1,13.9h-77.1C-133.9,444.9-140.4,440-140.4,431.1z"/>
<path d="M-30.7,431.1c10.6,0,19.2,9.1,19.2,20.2c0,11.2-8.6,20.2-19.2,20.2s-19.2-9.1-19.2-20.2C-49.9,440.1-41.3,431.1-30.7,431.1z
	"/>
</svg>
