<?xml version="1.0" encoding="utf-8"?>
<!-- Generator: Adobe Illustrator 19.0.0, SVG Export Plug-In . SVG Version: 6.00 Build 0)  -->
<svg version="1.1" id="图层_1" xmlns="http://www.w3.org/2000/svg" xmlns:xlink="http://www.w3.org/1999/xlink" x="0px" y="0px"
	 viewBox="-205 297 200.6 200" style="enable-background:new -205 297 200.6 200;" xml:space="preserve">
	 <style type="text/css">
		* {fill:white;}
	</style>
<path d="M-100.7,408.7v3.4v29.8v3.5h3.2h37h3.2v-3.5v-29.8v-3.4h-3.2h-37H-100.7z M-63.7,415.6v11.5l-3.6-11.5H-63.7z M-70.6,415.6
	l6.9,22.3v0.5h-3.6l-7.1-22.9H-70.6z M-77.8,415.6l7.1,22.9h-3.8l-7.1-22.9H-77.8z M-84.9,415.6l7.1,22.9h-3.7l-7.1-22.9H-84.9z
	 M-94.3,415.6h2.3l7.1,22.9h-3.8l-5.7-18.3V415.6z M-94.3,431l2.3,7.5h-2.3V431z"/>
<path d="M-47.9,408.7v3.4v29.8v3.5h3.2h37h3.2v-3.5v-29.8v-3.4h-3.2h-37H-47.9z M-10.9,415.6v11.5l-3.6-11.5H-10.9z M-17.8,415.6
	l6.9,22.3v0.5h-3.6l-7.1-22.9H-17.8z M-24.9,415.6l7.1,22.9h-3.7l-7.1-22.9H-24.9z M-32.1,415.6l7.1,22.9h-3.8l-7.1-22.9H-32.1z
	 M-41.5,415.6h2.3l7.1,22.9h-3.7l-5.7-18.3L-41.5,415.6z M-41.5,431l2.3,7.5h-2.3V431z"/>
<path d="M-150,445.4h3.2v-3.5v-29.8v-3.4h-3.2h-37h-3.2v3.4v29.8v3.5h3.2L-150,445.4L-150,445.4z M-153.2,415.6v11.5l-3.6-11.5
	H-153.2z M-160.1,415.6l6.9,22.3v0.5h-3.6l-7.1-22.9H-160.1z M-167.2,415.6l7.1,22.9h-3.8l-7.1-22.9H-167.2z M-174.4,415.6l7.1,22.9
	h-3.8l-7.1-22.9H-174.4z M-183.8,415.6h2.3l7.1,22.9h-3.7l-5.7-18.3V415.6z M-183.8,431l2.3,7.5h-2.3V431z"/>
<path d="M-150,403.1h3.2v-3.4v-29.8v-3.5h-3.2h-37h-3.2v3.5v29.8v3.4h3.2H-150z M-153.2,373.4v11.5l-3.6-11.5H-153.2z M-160.1,373.4
	l6.9,22.3v0.6h-3.6l-7.1-22.9H-160.1z M-167.2,373.4l7.1,22.9h-3.8l-7.1-22.9H-167.2z M-174.4,373.4l7.1,22.9h-3.8l-7.1-22.9H-174.4
	z M-183.8,373.4h2.3l7.1,22.9h-3.7l-5.7-18.3V373.4z M-183.8,388.8l2.3,7.5h-2.3V388.8z"/>
<path d="M-116.3,452.1v-58.7h5.5v-9.1l58.3-40v35.2h-13.2v23h29.7l0-23h-13l0-37.6l2.2-1.5l2.7-1.8l-1.2-3.1l-2.7-7.2l-1.5-3.9
	l-3.6,1.7l-76.1,36.3h-9.4v31.2h5.1v58.7h-56.9v11.6h186v-11.6H-116.3z M-59.4,337.8l6-2.8l0.1,0.2l-6.4,4.4
	C-59.6,338.9-59.5,338.3-59.4,337.8z M-62.3,339.2c0.1,0.6,0.2,1.3,0.3,1.9l-3.8,2.6c-0.8-0.6-1.6-1.2-2.3-1.8L-62.3,339.2z
	 M-71,344.7l1.8,1.4l-2.7,1.8L-71,344.7z M-75.1,345.3l-1.5,5.9l-1.5,1l-5.3-3L-75.1,345.3z M-86.9,351.8l5.2,2.9l-5.3,3.7
	L-86.9,351.8z M-90.7,352.8l-0.2,7.5l-6.7-4.3L-90.7,352.8z M-99.8,359.3l5.8,3.8l-6.2,4.2L-99.8,359.3z M-103.5,358.8l-0.3,6.3
	l-4.2-4.2L-103.5,358.8z M-110.8,363.7l6.5,6.5l-6.5,4.4V363.7z"/>
</svg>
