<?xml version="1.0" encoding="utf-8"?>
<!-- Generator: Adobe Illustrator 22.1.0, SVG Export Plug-In . SVG Version: 6.00 Build 0)  -->
<svg version="1.1" id="图层_1" xmlns="http://www.w3.org/2000/svg" xmlns:xlink="http://www.w3.org/1999/xlink" x="0px" y="0px"
	 viewBox="0 0 200 200" style="enable-background:new 0 0 200 200;" xml:space="preserve">
<path d="M31.1,86.6h14.6v93.5h22V100h21.5v80.1h22V100h21.5v80.1h22V86.6h14.2c2.2,0,3.9-0.6,5.3-1.8c1.4-1.2,2-2.8,2-4.7
	c0-2.2-0.9-3.9-2.8-5.3v-0.4H173l-69.1-35.8V28c4.1,1.9,10.2,2.2,18.5,0.8c8.3-1.4,15.4-0.9,21.3,1.2V6.9
	c-5.7-2.2-12.8-2.6-21.3-1.2s-14.7,1.1-18.5-0.8V3.3c0-2.2-1.2-3.3-3.7-3.3c-2.4,0-3.7,1.1-3.7,3.3v35.4L27.4,74.4H27v0.4
	c-2.2,1.4-3.3,3.1-3.3,5.3c0,1.9,0.7,3.5,2.2,4.7C27.5,86,29.2,86.6,31.1,86.6z M38.4,186.6L23.8,200h152.4L162,186.6H38.4z"/>
</svg>
