<?xml version="1.0" encoding="utf-8"?>
<!-- Generator: Adobe Illustrator 22.1.0, SVG Export Plug-In . SVG Version: 6.00 Build 0)  -->
<svg version="1.1" id="图层_1" xmlns="http://www.w3.org/2000/svg" xmlns:xlink="http://www.w3.org/1999/xlink" x="0px" y="0px"
	 viewBox="0 0 200 200" style="enable-background:new 0 0 200 200;" xml:space="preserve">
	 <style type="text/css">
		*{fill:white;}
	</style>
<g>
	<rect x="127.9" y="41.5" width="61.2" height="8.2"/>
	<rect x="138.5" y="74.4" width="50.6" height="8.2"/>
	<rect x="158.3" y="107.2" width="30.9" height="8.2"/>
	<path d="M107.8,115.4c-1.1-0.5-2.7-1.8-1.6-5.4c0.1-0.3,0.3-0.5,0.5-0.7c11-11.8,17.8-28.9,17.8-44.8c0-13-4.3-24.1-12.3-31.8
		c-7.4-7.1-17.7-11-28.9-11c-24.3,0-41.3,17.6-41.3,42.8c0,16,6.9,33.2,18.1,45.1l0.1,0.2c1.1,3.8-0.5,5.2-1.5,5.6
		c-11.1,4-47.4,18.4-47.4,38.4v4.8c0,18.3,23.5,27.1,71.9,27.2c48.4,0,71.9-8.9,71.9-27.2v-4.8C155.1,133.8,118.8,119.3,107.8,115.4
		z M143.6,158.5c0,9.8-22.6,15.7-60.5,15.7c-37.9,0-60.5-5.9-60.5-15.7v-4.8c0-7.6,17.1-19.5,39.8-27.6c5.4-1.9,12.1-8.9,8.4-20.3
		c-0.3-1-1.4-3-2.3-3.9c-9.2-9.6-15.2-24.3-15.2-37.5c0-23.2,16.1-31.4,29.8-31.4c8.3,0,15.7,2.8,21,7.8c5.8,5.5,8.8,13.7,8.8,23.6
		c0,12.9-5.8,27.5-14.9,37.1c-0.8,0.8-2.3,3.1-2.8,4.6c-3.4,11.1,3.2,18,8.5,19.9c22.7,8,39.8,19.9,39.8,27.6V158.5z"/>
</g>
</svg>
