<?xml version="1.0" encoding="utf-8"?>
<!-- Generator: Adobe Illustrator 22.1.0, SVG Export Plug-In . SVG Version: 6.00 Build 0)  -->
<svg version="1.1" id="图层_1" xmlns="http://www.w3.org/2000/svg" xmlns:xlink="http://www.w3.org/1999/xlink" x="0px" y="0px"
	 viewBox="-3739 981 200 200" style="enable-background:new -3739 981 200 200;" xml:space="preserve">
<path d="M-3599.9,1006.5c6.6,0,12.9,2.6,17.7,7.3c4.7,4.7,7.3,11,7.3,17.7v0.4c0,2.4,1.4,4.7,3.7,5.7c12.2,5.6,19.8,17,19.8,29.8
	c0,8.4-3.3,16.4-9.2,22.6c-5.9,6.2-14,10-22.6,10.7c-3.4,0.3-6,3.3-5.7,6.7c0.3,3.3,3,5.7,6.2,5.7c0.2,0,0.3,0,0.5,0
	c11.7-1,22.6-6.1,30.6-14.5c8.2-8.5,12.7-19.6,12.7-31.2c0-8.9-2.6-17.4-7.6-24.8c-4.1-6-9.6-11-16-14.6c-0.8-8.7-4.6-16.7-10.9-23
	c-7.1-7.1-16.5-11-26.5-11c-5.1,0-10.2,1.2-15.2,3.6c-10.9-10.6-25.4-16.6-40.7-16.6c-14.1,0-27.5,5-37.9,14
	c-9.4,8.2-15.7,19.2-18.1,31.2c-7.3,3.5-13.6,8.6-18.3,14.9c-5.8,7.8-8.8,16.8-8.8,26.2c0,11.6,4.5,22.7,12.7,31.2
	c8,8.4,18.9,13.5,30.6,14.5c3.4,0.3,6.5-2.3,6.7-5.7s-2.3-6.5-5.7-6.7c-8.7-0.7-16.7-4.5-22.6-10.7c-5.9-6.2-9.2-14.2-9.2-22.6
	c0-6.7,2.2-13.2,6.3-18.8c4-5.4,9.7-9.7,16.2-12.2c2.1-0.8,3.7-2.8,3.9-5c1.3-10.4,6.4-20,14.5-27c8.1-7.1,18.7-10.9,29.7-10.9
	c6.8,0,13.4,1.5,19.5,4.4c5.8,2.7,11,6.8,15.3,11.7c2,2.4,5.5,2.9,8.1,1.2C-3608.5,1007.9-3604.2,1006.5-3599.9,1006.5z"/>
<path d="M-3632.8,1144.6v-76.1c0-3.5-2.8-6.3-6.3-6.3s-6.3,2.8-6.3,6.3v76.1c-7.3,2.6-12.5,9.5-12.5,17.7c0,10.3,8.4,18.8,18.8,18.8
	s18.8-8.4,18.8-18.8C-3620.3,1154.1-3625.5,1147.2-3632.8,1144.6z M-3639,1168.5c-3.4,0-6.3-2.8-6.3-6.3s2.8-6.3,6.3-6.3
	s6.3,2.8,6.3,6.3S-3635.6,1168.5-3639,1168.5z"/>
<path d="M-3645.3,1049.7c0,3.5,2.8,6.3,6.3,6.3c3.5,0,6.3-2.8,6.3-6.3s-2.8-6.3-6.3-6.3C-3642.5,1043.5-3645.3,1046.3-3645.3,1049.7
	z"/>
<path d="M-3676.5,1049.7c0,3.5,2.8,6.3,6.3,6.3s6.3-2.8,6.3-6.3s-2.8-6.3-6.3-6.3S-3676.5,1046.3-3676.5,1049.7z"/>
<path d="M-3557.8,1118.5c-8.1,0-15.1,5.2-17.7,12.5h-26.1v-62.5c0-3.5-2.8-6.3-6.3-6.3s-6.3,2.8-6.3,6.3v68.8c0,3.5,2.8,6.3,6.3,6.3
	h32.3c2.6,7.3,9.5,12.5,17.7,12.5c10.3,0,18.8-8.4,18.8-18.8S-3547.4,1118.5-3557.8,1118.5z M-3557.8,1143.5c-3.4,0-6.3-2.8-6.3-6.3
	s2.8-6.3,6.3-6.3s6.3,2.8,6.3,6.3S-3554.3,1143.5-3557.8,1143.5z"/>
<path d="M-3614,1049.7c0,3.5,2.8,6.3,6.3,6.3s6.3-2.8,6.3-6.3s-2.8-6.3-6.3-6.3S-3614,1046.3-3614,1049.7z"/>
<path d="M-3670.3,1062.3c-3.5,0-6.3,2.8-6.3,6.3v62.5h-26.1c-2.6-7.3-9.5-12.5-17.7-12.5c-10.3,0-18.8,8.4-18.8,18.8
	s8.4,18.8,18.8,18.8c8.1,0,15.1-5.2,17.7-12.5h32.3c3.5,0,6.3-2.8,6.3-6.3v-68.8C-3664,1065-3666.8,1062.3-3670.3,1062.3z
	 M-3720.3,1143.5c-3.4,0-6.3-2.8-6.3-6.3s2.8-6.3,6.3-6.3s6.3,2.8,6.3,6.3S-3716.8,1143.5-3720.3,1143.5z"/>
</svg>
