<?xml version="1.0" encoding="utf-8"?>
<!-- Generator: Adobe Illustrator 22.1.0, SVG Export Plug-In . SVG Version: 6.00 Build 0)  -->
<svg version="1.1" id="图层_1" xmlns="http://www.w3.org/2000/svg" xmlns:xlink="http://www.w3.org/1999/xlink" x="0px" y="0px"
	 viewBox="0 0 200 200" style="enable-background:new 0 0 200 200;" xml:space="preserve">
<style type="text/css">
	*{fill:white;}
</style>
<g>
	<path d="M168.7,32.2c-13.5-14.1-36.4-14.1-50,0L98.2,53.4c-2.4,2.4-2.4,6.5,0,8.8c2.4,2.4,5.9,2.4,8.2,0L127,41
		c9.4-9.4,24.1-9.4,33.5,0c9.4,9.4,9.4,24.7,0,34.1L127,109.2c-9.4,9.4-24.1,9.4-33.5,0c-2.4-2.4-5.9-2.4-8.2,0s-2.4,6.5,0,8.8
		c13.5,14.1,36.4,14.1,50,0L168.7,84C182.8,69.3,182.8,46.3,168.7,32.2z"/>
	<path d="M87.6,145.7L67,166.9c-9.4,9.4-24.1,9.4-33.5,0c-9.4-9.4-9.4-24.7,0-34.1L67,98.7c9.4-9.4,24.1-9.4,33.5,0
		c2.4,2.4,5.9,2.4,8.2,0s2.4-6.5,0-8.8c-13.5-14.1-36.4-14.1-50,0l-33.5,34.1c-14.1,14.1-13.5,37,0,51.1c13.5,14.1,36.4,14.1,50,0
		l20.6-21.2c2.4-2.4,2.4-6.5,0-8.8C93.5,143.3,90,143.3,87.6,145.7L87.6,145.7z"/>
</g>
</svg>
