<?xml version="1.0" encoding="utf-8"?>
<!-- Generator: Adobe Illustrator 19.0.0, SVG Export Plug-In . SVG Version: 6.00 Build 0)  -->
<svg version="1.1" id="图层_1" xmlns="http://www.w3.org/2000/svg" xmlns:xlink="http://www.w3.org/1999/xlink" x="0px" y="0px"
	 viewBox="-205 297 200.6 200" style="enable-background:new -205 297 200.6 200;" xml:space="preserve">
	 <style type="text/css">
		* {fill:white;}
	</style>
<path d="M-49.5,480.8V344.4l-19.1-12.8l-69.7,31.1v24.1l-38.5,13.4v80.5h-3.9v9.6h12.6v-84.5l51.1-16.7v101.3h35.4V480h-7.9v-92.5
	l-18.5-11.2l-20.8,7.2v-15.2l50.3-22.3v144.3h35.4v-9.6L-49.5,480.8L-49.5,480.8z M-161.9,427.3l36.9-12v-15.9l-36.9,12.8V427.3z
	 M-161.9,448.1l36.9-8v-15.9l-36.9,9.6V448.1L-161.9,448.1z M-161.9,469.6l36.9-4.8v-15.9l-36.9,5.6V469.6L-161.9,469.6z
	 M-161.9,490.3l36.9-0.8v-15.9l-36.9,1.6V490.3z"/>
</svg>
