<?xml version="1.0" encoding="utf-8"?>
<!-- Generator: Adobe Illustrator 19.0.0, SVG Export Plug-In . SVG Version: 6.00 Build 0)  -->
<svg version="1.1" id="图层_1" xmlns="http://www.w3.org/2000/svg" xmlns:xlink="http://www.w3.org/1999/xlink" x="0px" y="0px"
	 viewBox="-205 297 200.6 200" style="enable-background:new -205 297 200.6 200;" xml:space="preserve">
	 <style type="text/css">
		* {fill:white;}
	</style>
<path d="M-13.6,404.3h-19.7c-2.2,0-4-1.8-4-4l0-26.8c0-2.2-1.8-4-4-4h-40.3c-2.2,0-4,1.8-4,4v75.1c0,2.2,1.6,4,3.5,4
	c2,0,3.5-1.8,3.9-4c1.9-10.5,11-18.4,22-18.4c11,0,20.1,7.9,22,18.4c0.4,2.2,2.1,4,4.4,4h16.1c2.2,0,4-1.8,4-4v-40.3
	C-9.6,406.1-11.4,404.3-13.6,404.3z M-51.8,394.4c0,2.2-1.8,4-4,4h-10.9c-2.2,0-4-1.8-4-4v-10.9c0-2.2,1.8-4,4-4h10.9
	c2.2,0,4,1.8,4,4V394.4z M-199.8,448.6c0,2.2,1.6,4,3.6,4h1c2,0,3.6-1.8,3.9-4c1.7-10.5,11-18.5,22.3-18.3c9.9,0.2,18.3,7.8,20,18.3
	c0.4,2.2,1.9,4,3.9,4h11h8.4h31.8c2,0,3.6-1.8,3.6-4v-31h-109.6V448.6z M-93.8,348.9h-31.8h-8.4v0H-156h-13.5h-26.7
	c-2,0-3.6,1.8-3.6,4v61.6h109.6v-61.6C-90.2,350.7-91.8,348.9-93.8,348.9z M-170.3,435.6c-10.2,0-18.4,8.2-18.4,18.4
	c0,10.2,8.2,18.4,18.4,18.4c10.2,0,18.4-8.2,18.4-18.4C-151.9,443.9-160.1,435.6-170.3,435.6z M-170.3,461.2c-4,0-7.2-3.2-7.2-7.2
	c0-4,3.2-7.2,7.2-7.2c4,0,7.2,3.2,7.2,7.2C-163.1,458-166.3,461.2-170.3,461.2z M-56,435.5c-10.2,0-18.4,8.2-18.4,18.4
	c0,10.2,8.2,18.4,18.4,18.4c10.2,0,18.4-8.2,18.4-18.4C-37.6,443.7-45.9,435.5-56,435.5z M-56,461.1c-4,0-7.2-3.2-7.2-7.2
	c0-4,3.2-7.2,7.2-7.2s7.2,3.2,7.2,7.2C-48.8,457.8-52.1,461.1-56,461.1z"/>
</svg>
