<?xml version="1.0" encoding="utf-8"?>
<!-- Generator: Adobe Illustrator 19.0.0, SVG Export Plug-In . SVG Version: 6.00 Build 0)  -->
<svg version="1.1" id="图层_1" xmlns="http://www.w3.org/2000/svg" xmlns:xlink="http://www.w3.org/1999/xlink" x="0px" y="0px"
	 viewBox="-205 297 200.6 200" style="enable-background:new -205 297 200.6 200;" xml:space="preserve">
	 <style type="text/css">
		* {fill:white;}
	</style>
<path d="M-35.7,374.1h-9v-31.6c0-11.2-9.1-20.3-20.3-20.3h-79.4c-11.2,0-20.3,9.1-20.3,20.3V358h-9c-11.2,0-20.3,9.1-20.3,20.3v34.5
	h0v66.7c0,11.2,9.1,20.3,20.3,20.3h143c8.4,0,15.2-6.8,15.2-15.2v-90.2C-15.4,383.2-24.6,374.1-35.7,374.1L-35.7,374.1z
	 M-144.4,337.9H-65c2.6,0,4.6,2.1,4.6,4.6v66.1h-35c-1.3,0-2.5-0.5-3.3-1.4l-8.3-8.6c-3.8-3.9-9.1-6.2-14.6-6.2h-27.5v-49.9
	C-149.1,340-147,337.9-144.4,337.9z M-178.3,378.2c0-2.6,2.1-4.6,4.6-4.6h9v18.9h-9c-1.6,0-3.2,0.2-4.7,0.5V378.2z M-31.1,479.3
	c0,2.7-2.2,4.9-4.9,4.9h-137.7c-2.6,0-4.6-2.1-4.6-4.6v-66.8c0-2.6,2.1-4.6,4.6-4.6h52.1c1.3,0,2.5,0.5,3.3,1.4l8.3,8.6
	c3.4,3.5,8.1,5.7,13,6.1h65.9V479.3L-31.1,479.3z M-31.1,408.6h-13.7v-18.9h9c2.6,0,4.6,2.1,4.6,4.6L-31.1,408.6L-31.1,408.6z"/>
<path d="M-134.5,370.3h59.5c4.3,0,7.8-3.5,7.8-7.8s-3.5-7.8-7.8-7.8h-59.5c-4.3,0-7.8,3.5-7.8,7.8S-138.8,370.3-134.5,370.3z"/>
</svg>
