<?xml version="1.0" encoding="utf-8"?>
<!-- Generator: Adobe Illustrator 19.0.0, SVG Export Plug-In . SVG Version: 6.00 Build 0)  -->
<svg version="1.1" id="图层_1" xmlns="http://www.w3.org/2000/svg" xmlns:xlink="http://www.w3.org/1999/xlink" x="0px" y="0px"
	 viewBox="-205 297 200.6 200" style="enable-background:new -205 297 200.6 200;" xml:space="preserve">
	 <style type="text/css">
		* {fill:white;}
	</style>
<path d="M-184.7,337h-20v140c0,11,9,20,20,20h140v-20h-140V337z"/>
<path d="M-24.7,297h-120c-11,0-20,9-20,20v120c0,11,9,20,20,20h120c11,0,20-9,20-20V317C-4.7,306-13.7,297-24.7,297z M-17.7,427.3
	c0,9.2-7.5,16.8-16.8,16.8H-135c-9.2,0-16.8-7.5-16.8-16.8V326.8c0-9.2,7.5-16.8,16.8-16.8h100.5c9.2,0,16.8,7.5,16.8,16.8V427.3z"
	/>
<rect x="-134.7" y="367" width="100" height="20"/>
<polygon points="-74.7,427 -134.7,427 -134.7,407 -74.7,407 -74.7,427 "/>
<rect x="-134.7" y="327" width="100" height="20"/>
</svg>
