<?xml version="1.0" encoding="utf-8"?>
<!-- Generator: Adobe Illustrator 19.0.0, SVG Export Plug-In . SVG Version: 6.00 Build 0)  -->
<svg version="1.1" id="图层_1" xmlns="http://www.w3.org/2000/svg" xmlns:xlink="http://www.w3.org/1999/xlink" x="0px" y="0px"
	 viewBox="-3739 981 200.6 200" style="enable-background:new -3739 981 200.6 200;" xml:space="preserve">
	 <style type="text/css">
		* {fill:white;}
	</style>
<path class="st0" d="M-3572.8,1093.1c5.7,0,10.2,4.6,10.2,10.2s-4.6,10.2-10.2,10.2h-55.6v38.7c0,5.7-4.6,10.2-10.2,10.2
	s-10.2-4.6-10.2-10.2v-38.7h-55.6c-5.7,0-10.2-4.6-10.2-10.2s4.6-10.2,10.2-10.2h55.6v-30.2h-55.6c-5.7,0-10.2-4.6-10.2-10.2
	c0-5.5,4.6-10.2,10.2-10.2h41.3l-23.3-23.3c-4-4-4-10.5,0-14.5c4-4,10.5-4,14.5,0l33.5,33.5l33.5-33.5c4-4,10.5-4,14.5,0
	c4,4,4,10.5,0,14.5l-23.3,23.3h41.3c5.7,0,10.2,4.6,10.2,10.2c0,5.5-4.6,10.2-10.2,10.2h-55.6v30.2H-3572.8z"/>
</svg>
