<?xml version="1.0" encoding="utf-8"?>
<!-- Generator: Adobe Illustrator 19.0.0, SVG Export Plug-In . SVG Version: 6.00 Build 0)  -->
<svg version="1.1" id="图层_1" xmlns="http://www.w3.org/2000/svg" xmlns:xlink="http://www.w3.org/1999/xlink" x="0px" y="0px"
	 viewBox="-205 297 200.6 200" style="enable-background:new -205 297 200.6 200;" xml:space="preserve">
	 <style type="text/css">
		* {fill:white;}
	</style>
<path d="M-23,416.8H-85l13.5-13.5c2.3-2.3,2.3-5.9,0-8.2c-2.3-2.3-5.9-2.3-8.2,0l-23.3,23.3c-0.1,0.1-0.1,0.1-0.2,0.2
	c0,0,0,0.1-0.1,0.1c0,0-0.1,0.1-0.1,0.1c0,0-0.1,0.1-0.1,0.1c0,0-0.1,0.1-0.1,0.1c0,0-0.1,0.1-0.1,0.1c0,0,0,0.1-0.1,0.1
	c0,0-0.1,0.1-0.1,0.2c0,0,0,0.1-0.1,0.1c0,0-0.1,0.1-0.1,0.2c0,0,0,0.1-0.1,0.1c0,0,0,0.1-0.1,0.1c0,0,0,0.1-0.1,0.1
	c0,0,0,0.1-0.1,0.1c0,0,0,0.1-0.1,0.1c0,0,0,0.1,0,0.1c0,0,0,0.1-0.1,0.1l0,0.1c0,0.1,0,0.1-0.1,0.2c0,0,0,0.1,0,0.1
	c0,0.1,0,0.1,0,0.2c0,0,0,0.1,0,0.1c0,0.1,0,0.1,0,0.2c0,0,0,0.1,0,0.1c0,0.1,0,0.1,0,0.2c0,0,0,0.1,0,0.1c0,0.1,0,0.1,0,0.2
	c0,0,0,0.1,0,0.1c0,0,0,0.1,0,0.1c0,0.1,0,0.2,0,0.3c0,0,0,0,0,0c0,0,0,0,0,0c0,0.1,0,0.2,0,0.3c0,0,0,0.1,0,0.1c0,0,0,0.1,0,0.1
	c0,0.1,0,0.1,0,0.2c0,0,0,0.1,0,0.1c0,0.1,0,0.1,0,0.2c0,0,0,0.1,0,0.1c0,0.1,0,0.1,0,0.2c0,0,0,0.1,0,0.1c0,0.1,0,0.1,0,0.2
	c0,0.1,0,0.2,0.1,0.3c0,0,0,0.1,0,0.1c0,0,0,0.1,0.1,0.1c0,0.1,0.1,0.2,0.1,0.2c0,0,0,0.1,0.1,0.1c0,0,0,0.1,0.1,0.1
	c0,0,0,0.1,0.1,0.1c0,0,0,0.1,0.1,0.1c0,0.1,0.1,0.1,0.1,0.2c0,0,0,0.1,0.1,0.1c0,0.1,0.1,0.1,0.1,0.1c0,0,0,0.1,0.1,0.1
	c0,0,0.1,0.1,0.1,0.1c0,0,0.1,0.1,0.1,0.1c0,0,0.1,0.1,0.1,0.1c0,0,0.1,0.1,0.1,0.1c0,0,0,0.1,0.1,0.1c0.1,0.1,0.1,0.1,0.2,0.2
	l23.3,23.3c1.1,1.1,2.6,1.7,4.1,1.7c1.5,0,3-0.6,4.1-1.7c2.3-2.3,2.3-5.9,0-8.2L-85,428.4H-23c3.2,0,5.8-2.6,5.8-5.8
	C-17.3,419.4-19.8,416.8-23,416.8L-23,416.8z M-81.4,340.8c0-3.2-2.6-5.8-5.8-5.8H-163c-3.2,0-5.8,2.6-5.8,5.8s2.6,5.8,5.8,5.8h75.9
	C-84,346.6-81.4,344-81.4,340.8L-81.4,340.8z M-110.6,375.6c0-3.2-2.6-5.8-5.8-5.8H-163c-3.2,0-5.8,2.6-5.8,5.8
	c0,3.2,2.6,5.8,5.8,5.8h46.7C-113.2,381.4-110.6,378.8-110.6,375.6z M-163,404.8c-3.2,0-5.8,2.6-5.8,5.8c0,3.2,2.6,5.8,5.8,5.8h35
	c3.2,0,5.8-2.6,5.8-5.8c0-3.2-2.6-5.8-5.8-5.8H-163z M-23,446c-3.2,0-5.8,2.6-5.8,5.8v13.8c0,2.1-1.7,3.7-3.7,3.7h-107.2v-5.9
	c0-3.2-2.6-5.8-5.8-5.8c-3.2,0-5.8,2.6-5.8,5.8v11.7c0,2.9,2.2,5.4,5,5.7c0.1,0,0.2,0,0.3,0c0.2,0,0.3,0,0.5,0h113
	c7.6,0,13.9-5.6,15.1-12.8c0.1-0.5,0.2-1,0.2-1.5v-14.8C-17.3,448.6-19.8,446-23,446L-23,446z M-32.6,329.3h-9.1
	c-3.2,0-5.8,2.6-5.8,5.8c0,3.2,2.6,5.8,5.8,5.8h9.1c2.1,0,3.7,1.7,3.7,3.7v48.3c0,3.2,2.6,5.8,5.8,5.8c3.2,0,5.8-2.6,5.8-5.8v-48.3
	C-17.3,336.2-24.1,329.3-32.6,329.3z M-110.5,451.6c3.2,0,5.8-2.6,5.8-5.8c0-3.2-2.5-5.8-5.7-5.8v0h-66.5c-2.1,0-3.7-1.7-3.7-3.7
	V321.3c0-2.1,1.7-3.7,3.7-3.7h103.5c2.1,0,3.7,1.7,3.7,3.7V376c0,3.2,2.6,5.8,5.8,5.8c3.2,0,5.8-2.6,5.8-5.8v-54.7
	c0-8.4-6.9-15.3-15.3-15.3h-103.5c-8.4,0-15.3,6.9-15.3,15.3v114.9c0,8.4,6.9,15.3,15.3,15.3h65.3
	C-111.2,451.6-110.9,451.6-110.5,451.6L-110.5,451.6z"/>
</svg>
