<?xml version="1.0" encoding="utf-8"?>
<!-- Generator: Adobe Illustrator 19.0.0, SVG Export Plug-In . SVG Version: 6.00 Build 0)  -->
<svg version="1.1" id="图层_1" xmlns="http://www.w3.org/2000/svg" xmlns:xlink="http://www.w3.org/1999/xlink" x="0px" y="0px"
	 viewBox="-3739 981 200 200" style="enable-background:new -3739 981 200 200;" xml:space="preserve">
	 <style type="text/css">
		* {fill:white;}
	</style>
<path d="M-3691.1,1101c-3.7,0.3-6.4,3.5-6.1,7.2c0.3,3.3,2.9,5.8,6.1,6.1h31.1c3.7-0.3,6.4-3.5,6.1-7.2c-0.3-3.3-2.9-5.8-6.1-6.1
	H-3691.1z M-3610.2,1067.7c0.1-3.6-2.7-6.6-6.3-6.7h-74.6c-3.7,0.3-6.4,3.5-6.1,7.2c0.3,3.3,2.9,5.8,6.1,6.1h74.6
	C-3612.9,1074.2-3610.1,1071.3-3610.2,1067.7C-3610.2,1067.7-3610.2,1067.7-3610.2,1067.7z M-3616.5,1021h-74.6
	c-3.7,0.3-6.4,3.5-6.1,7.2c0.3,3.3,2.9,5.8,6.1,6.1h74.6c3.7-0.3,6.4-3.5,6.1-7.2C-3610.6,1023.9-3613.2,1021.3-3616.5,1021z"/>
<path d="M-3722.2,1154.3v-146.6c-0.3-7.1,5.3-13.1,12.4-13.4c0,0,0,0,0,0h112c7.1,0.3,12.7,6.2,12.4,13.4v80h12.5v-80
	c0.5-14.2-10.6-26.2-24.9-26.7h-112c-14.2,0.5-25.4,12.4-24.9,26.7v146.6c-0.5,14.2,10.7,26.2,24.9,26.7h80.9v-13.3h-80.9
	C-3716.9,1167.4-3722.4,1161.5-3722.2,1154.3C-3722.2,1154.3-3722.2,1154.3-3722.2,1154.3z"/>
<path d="M-3604.7,1167.4c-1.9,0-3.8-0.9-5-2.3l-31.8-36.4c-2.5-2.8-2.2-7.2,0.6-9.7c2.8-2.5,7.2-2.2,9.7,0.6l0,0l26.8,30.7
	l49.3-53.7c2.8-2.5,7.1-2.2,9.6,0.6c2.1,2.4,2.3,5.9,0.4,8.5l-54.5,59.1C-3600.9,1166.3-3602.7,1167.2-3604.7,1167.4z"/>
</svg>
