<?xml version="1.0" encoding="utf-8"?>
<!-- Generator: Adobe Illustrator 19.0.0, SVG Export Plug-In . SVG Version: 6.00 Build 0)  -->
<svg version="1.1" id="图层_1" xmlns="http://www.w3.org/2000/svg" xmlns:xlink="http://www.w3.org/1999/xlink" x="0px" y="0px"
	 viewBox="-3739 981 200.6 200" style="enable-background:new -3739 981 200.6 200;" xml:space="preserve">
	 <style type="text/css">
		* {fill:white;}
	</style>
<path d="M-3639.2,1137.7c-37,0-69.1-26.2-76.5-62.3c-0.9-4.7,2.1-9.2,6.8-10.3c4.7-1.1,9.2,2.1,10.3,6.8c5.8,28,30.8,48.5,59.4,48.5
	c29.4,0,54.4-20.9,59.7-49.7c0.9-4.7,5.3-7.7,10.2-7c4.7,0.9,7.9,5.5,7,10.2C-3569.1,1110.7-3601.4,1137.7-3639.2,1137.7z"/>
<path d="M-3639.2,1161.9c-4.9,0-8.6-3.9-8.6-8.6v-138.7c0-4.9,3.9-8.6,8.6-8.6c4.9,0,8.6,3.9,8.6,8.6v138.7
	C-3630.5,1158-3634.3,1161.9-3639.2,1161.9z"/>
<path d="M-3605,1052h-68.2c-4.9,0-8.6-3.9-8.6-8.6s3.9-8.6,8.6-8.6h68.2c4.9,0,8.6,3.9,8.6,8.6S-3600.3,1052-3605,1052z"/>
<path d="M-3630.5,1017.3h-17.3c-4.9,0-8.6-3.9-8.6-8.6s3.9-8.6,8.6-8.6h17.3c4.9,0,8.6,3.9,8.6,8.6
	C-3621.9,1013.4-3625.7,1017.3-3630.5,1017.3z"/>
<path d="M-3718.3,1106.5c-1.2,0-2.4-0.3-3.5-0.8c-4.4-2-6.4-7.1-4.4-11.5l11.5-25.6c2-4.4,7.1-6.4,11.5-4.4l25.6,11.5
	c4.4,2,6.4,7.1,4.4,11.5s-7.1,6.4-11.5,4.4l-17.7-7.9l-8,17.6C-3711.8,1104.5-3714.9,1106.5-3718.3,1106.5z"/>
<path d="M-3559.3,1106.5c-3.3,0-6.5-2-7.9-5.2l-7.9-17.7l-17.7,7.9c-4.4,2-9.5,0-11.5-4.4s0-9.5,4.4-11.5l25.6-11.5
	c4.4-2,9.5,0,11.5,4.4l11.5,25.6c2,4.4,0,9.5-4.4,11.5C-3557,1106.2-3558.2,1106.5-3559.3,1106.5z"/>
</svg>
