<?xml version="1.0" encoding="utf-8"?>
<!-- Generator: Adobe Illustrator 19.0.0, SVG Export Plug-In . SVG Version: 6.00 Build 0)  -->
<svg version="1.1" id="图层_1" xmlns="http://www.w3.org/2000/svg" xmlns:xlink="http://www.w3.org/1999/xlink" x="0px" y="0px"
	 viewBox="-205 297 200.6 200" style="enable-background:new -205 297 200.6 200;" xml:space="preserve">
	 <style type="text/css">
		* {fill:white;}
	</style>
<path d="M-115.5,422.3l-25.3-25.1l-9.2,33.5L-115.5,422.3z M-19.1,306.7l-5.3-5.3c-5.8-5.9-15.3-5.9-21.1-0.1c0,0,0,0-0.1,0.1
	l-10.1,10l26.4,26.4l10.1-10.1C-13.2,322-13.2,312.6-19.1,306.7z"/>
<path d="M-53.2,476.5c0,2.2-1.8,4-4,4h-117c-2.2,0-4-1.8-4-4l0.2-114.7h30.8c2.3,0,4.2-1.9,4.2-4.2V326h58.6v-16.4l-59.8,0l0,0
	l-50.3,51.5v115.5c0,11.3,9.2,20.4,20.4,20.4h117c11.3,0,20.4-9.2,20.4-20.4V373.9h-16.4L-53.2,476.5L-53.2,476.5z"/>
<path d="M-136.1,391.1l26.7,26.5l73.7-73.4l-26.4-26.4L-136.1,391.1z"/>
</svg>
