<?xml version="1.0" encoding="utf-8"?>
<!-- Generator: Adobe Illustrator 19.0.0, SVG Export Plug-In . SVG Version: 6.00 Build 0)  -->
<svg version="1.1" id="图层_1" xmlns="http://www.w3.org/2000/svg" xmlns:xlink="http://www.w3.org/1999/xlink" x="0px" y="0px"
	 viewBox="-3739 981 200.2 200" style="enable-background:new -3739 981 200.2 200;" xml:space="preserve">
	 <style type="text/css">
		* {fill:white;}
	</style>
<path d="M-3545.6,1158.9c-2.1-1-4-2.1-5.7-3.3l-1-0.6c-6.2-3-13.2-4.7-20.7-4.7c-0.1,0-0.1,0-0.2,0l21.7-55.1
	c4.9-7.2,4.3-17.1-1.9-23.6c-0.9-0.9-1.9-1.7-3-2.3l-16.5-9.1v-35c0-6.9-5.5-12.5-12.3-12.5h-6.2v-12.5c0-6.9-5.5-12.5-12.3-12.5
	h-73.8c-6.8,0-12.3,5.6-12.3,12.5v12.5h-6.2c-6.8,0-12.3,5.6-12.3,12.5v35l-16.5,9.1c-1.1,0.6-2.1,1.4-3,2.3
	c-6.2,6.5-6.8,16.4-1.9,23.6l26,65.9c0.2,0.6,0.5,1.1,0.9,1.5c-7.8-0.2-14.9-2.7-20.8-7l-1-0.6c-2.2-1-4.4-1.8-6.5-2.5
	c-3.2-1-6.7,0.8-7.7,4.1c-1,3.3,0.8,6.8,4.1,7.8c1.7,0.5,3.2,1.1,4.6,1.7c7.9,5.6,17.6,8.9,28,8.9c7.3,0,14.1-1.7,20.2-4.5l1.1-0.6
	c6.1-4.5,13.6-7.2,21.7-7.2c5.4,0,10.4,1.2,15.1,3.4c7.9,5.6,17.6,9,28,9c7.3,0,14.1-1.7,20.2-4.5l1.1-0.6
	c6.1-4.5,13.6-7.2,21.7-7.2c5.4,0,10.4,1.2,15.1,3.4c2.3,1.6,4.6,2.9,6.9,4c3.1,1.5,6.7,0.2,8.2-2.9
	C-3541.2,1164.1-3542.5,1160.4-3545.6,1158.9L-3545.6,1158.9z M-3695.9,1025.2h6.2c6.8,0,12.3-5.6,12.3-12.5v-12.5h73.8v12.5
	c0,6.9,5.5,12.5,12.3,12.5h6.2v28.2l-44.3-24.3c-3.2-2.5-7.1-3.9-11.1-3.9c-4,0-7.9,1.4-11.1,3.9l-44.3,24.3V1025.2L-3695.9,1025.2z
	 M-3687.3,1159.4c-1.6,0.7-3.3,1.3-5,1.8c0.6-1.5,0.7-3.2,0.1-4.8l-26.6-67.5c-2.3-2.4-2.3-6.3,0-8.7l72.2-39.7v111.4
	c-3.9-1.1-8.1-1.7-12.4-1.7C-3669.6,1150.2-3679.3,1153.7-3687.3,1159.4L-3687.3,1159.4z M-3601.2,1159.4c-4.6,2-9.5,3.2-14.8,3.2
	c-6.7,0-13-1.9-18.5-5.1v-117l72.2,39.7c2.3,2.4,2.3,6.3,0,8.7l-25.1,63.6C-3592.3,1154-3597,1156.4-3601.2,1159.4L-3601.2,1159.4z"
	/>
</svg>
