<?xml version="1.0" encoding="utf-8"?>
<!-- Generator: Adobe Illustrator 19.0.0, SVG Export Plug-In . SVG Version: 6.00 Build 0)  -->
<svg version="1.1" id="图层_1" xmlns="http://www.w3.org/2000/svg" xmlns:xlink="http://www.w3.org/1999/xlink" x="0px" y="0px"
	 viewBox="-205 297 200.6 200" style="enable-background:new -205 297 200.6 200;" xml:space="preserve">
	 <style type="text/css">
		* {fill:white;}
	</style>
<path d="M-32.4,491.2l3.1-7.3h-168.1V328.7l-7.3,3.1l11.7-27.7l11.7,27.7l-7.3-3.1v146.4h159.4l-3.1-7.3l27.7,11.7L-32.4,491.2z
	 M-174.1,463.4h29.2v-35h-29.2V463.4z M-101.1,463.4v-67.2h-29.2v67.2H-101.1z M-80.6,463.4h29.2l0-96.4h-29.2V463.4z M-175,386.2
	l2,8.5c31.7-7.3,79.5-28.5,112.4-64.4l10.9,8.1l4.2-35.6L-78.5,317l10.7,8C-99.2,359-144.7,379.2-175,386.2z"/>
</svg>
