<?xml version="1.0" encoding="utf-8"?>
<!-- Generator: Adobe Illustrator 19.0.0, SVG Export Plug-In . SVG Version: 6.00 Build 0)  -->
<svg version="1.1" id="图层_1" xmlns="http://www.w3.org/2000/svg" xmlns:xlink="http://www.w3.org/1999/xlink" x="0px" y="0px"
	 viewBox="-205 297 200.6 200" style="enable-background:new -205 297 200.6 200;" xml:space="preserve">
	 <style type="text/css">
		* {fill:white;}
	</style>
<path d="M-204,375.8l21.3-6.6v56.7l-2.3,0.2v-16.2h-3.4v19.9l1.8-0.2l3.8-0.3v33H-204L-204,375.8L-204,375.8z M-141.4,358.9
	l135.9,23.2v80.4h-135.9L-141.4,358.9z M-129.3,375.2v75c0,2.8,2.3,5.1,5.1,5.1c2.8,0,5.1-2.3,5.1-5.1v-75c0-2.8-2.3-5.1-5.1-5.1
	C-127,370.1-129.3,372.4-129.3,375.2L-129.3,375.2z M-22.8,389.7v61.4c0,2.3,1.9,4.2,4.2,4.2c2.3,0,4.2-1.9,4.2-4.2v-61.4
	c0-2.3-1.9-4.2-4.2-4.2C-20.9,385.5-22.8,387.4-22.8,389.7z M-41.5,387.3v63.6c0,2.4,1.9,4.3,4.3,4.3c2.4,0,4.3-1.9,4.3-4.3v-63.6
	c0-2.4-1.9-4.3-4.3-4.3C-39.5,383-41.5,384.9-41.5,387.3L-41.5,387.3z M-62.2,384.9v65.9c0,2.5,2,4.5,4.5,4.5c2.5,0,4.5-2,4.5-4.5
	v-65.9c0-2.5-2-4.5-4.5-4.5C-60.2,380.4-62.2,382.4-62.2,384.9L-62.2,384.9z M-82.9,382v68.6c0,2.6,2.1,4.7,4.7,4.7c0,0,0,0,0,0
	c2.6,0,4.7-2.1,4.7-4.7V382c0-2.6-2.1-4.7-4.7-4.7C-80.8,377.4-82.9,379.4-82.9,382L-82.9,382z M-105.4,378.6v71.8
	c0,2.7,2.2,4.9,4.9,4.9c2.7,0,4.9-2.2,4.9-4.9v-71.8c0-2.7-2.2-4.9-4.9-4.9C-103.2,373.7-105.4,375.9-105.4,378.6L-105.4,378.6z
	 M-179.3,368.1l30.3-9.4v103.6h-30.3V368.1L-179.3,368.1z"/>
</svg>
